<?xml version="1.0" encoding="UTF-8" standalone="no"?><svg xmlns="http://www.w3.org/2000/svg" xmlns:xlink="http://www.w3.org/1999/xlink" contentScriptType="application/ecmascript" contentStyleType="text/css" height="347px" preserveAspectRatio="none" style="width:460px;height:347px;" version="1.1" viewBox="0 0 460 347" width="460px" zoomAndPan="magnify"><defs><filter height="300%" id="f16dvk45x9udm9" width="300%" x="-1" y="-1"><feGaussianBlur result="blurOut" stdDeviation="2.0"/><feColorMatrix in="blurOut" result="blurOut2" type="matrix" values="0 0 0 0 0 0 0 0 0 0 0 0 0 0 0 0 0 0 .4 0"/><feOffset dx="4.0" dy="4.0" in="blurOut2" result="blurOut3"/><feBlend in="SourceGraphic" in2="blurOut3" mode="normal"/></filter></defs><g><!--class iMetaBox--><rect fill="#FEFECE" filter="url(#f16dvk45x9udm9)" height="99.2188" id="iMetaBox" style="stroke: #A80036; stroke-width: 1.5;" width="187" x="6" y="129"/><ellipse cx="66.75" cy="145" fill="#B4A7E5" rx="11" ry="11" style="stroke: #A80036; stroke-width: 1.0;"/><path d="M67.7031,141.7813 L67.7031,148.2969 L69.4219,148.2969 C69.875,148.2969 70.0156,148.3281 70.1875,148.4531 C70.4219,148.625 70.5313,148.875 70.5313,149.1563 C70.5313,149.7188 70.1719,150 69.4219,150 L64.2813,150 C63.875,150 63.6719,149.9531 63.5156,149.8281 C63.2969,149.6719 63.1563,149.4063 63.1563,149.1563 C63.1563,148.8594 63.3125,148.5781 63.5625,148.4219 C63.7188,148.3125 63.8438,148.2969 64.2813,148.2969 L66,148.2969 L66,141.7813 L64.2813,141.7813 C63.8594,141.7813 63.6719,141.75 63.5156,141.6406 C63.2969,141.4688 63.1563,141.2188 63.1563,140.9375 C63.1563,140.6563 63.3125,140.3594 63.5625,140.2031 C63.7188,140.1094 63.8438,140.0938 64.2813,140.0938 L69.4219,140.0938 C69.875,140.0938 70.0156,140.125 70.1875,140.2344 C70.4219,140.4063 70.5313,140.6719 70.5313,140.9375 C70.5313,141.2344 70.3906,141.5156 70.125,141.6719 C70,141.75 69.8125,141.7813 69.4219,141.7813 Z "/><text fill="#000000" font-family="sans-serif" font-size="12" font-style="italic" lengthAdjust="spacingAndGlyphs" textLength="57" x="87.25" y="149.1543">iMetaBox</text><line style="stroke: #A80036; stroke-width: 1.5;" x1="7" x2="192" y1="161" y2="161"/><line style="stroke: #A80036; stroke-width: 1.5;" x1="7" x2="192" y1="169" y2="169"/><ellipse cx="17" cy="180.9023" fill="#84BE84" rx="3" ry="3" style="stroke: #038048; stroke-width: 1.0;"/><text fill="#000000" font-family="sans-serif" font-size="11" lengthAdjust="spacingAndGlyphs" textLength="158" x="26" y="183.2104">void display(WP_Post $post)</text><ellipse cx="17" cy="193.707" fill="#84BE84" rx="3" ry="3" style="stroke: #038048; stroke-width: 1.0;"/><text fill="#000000" font-family="sans-serif" font-size="11" lengthAdjust="spacingAndGlyphs" textLength="138" x="26" y="196.0151">void save(int $recipe_id)</text><ellipse cx="17" cy="206.5117" fill="#84BE84" rx="3" ry="3" style="stroke: #038048; stroke-width: 1.0;"/><text fill="#000000" font-family="sans-serif" font-size="11" lengthAdjust="spacingAndGlyphs" textLength="161" x="26" y="208.8198">mixed sanitize(string $input)</text><ellipse cx="17" cy="219.3164" fill="#84BE84" rx="3" ry="3" style="stroke: #038048; stroke-width: 1.0;"/><text fill="#000000" font-family="sans-serif" font-size="11" lengthAdjust="spacingAndGlyphs" textLength="101" x="26" y="221.6245">string get_name()</text><!--class MetaBox--><rect fill="#FEFECE" filter="url(#f16dvk45x9udm9)" height="48" id="MetaBox" style="stroke: #A80036; stroke-width: 1.5;" width="85" x="146" y="288"/><ellipse cx="161" cy="304" fill="#ADD1B2" rx="11" ry="11" style="stroke: #A80036; stroke-width: 1.0;"/><path d="M163.3438,299.6719 L163.5156,299.75 C163.7344,299.4375 163.9375,299.3438 164.2344,299.3438 C164.5313,299.3438 164.8125,299.4844 164.9688,299.75 C165.0625,299.9063 165.0781,300.0313 165.0781,300.4688 L165.0781,301.8906 C165.0781,302.3125 165.0469,302.5 164.9375,302.6563 C164.7656,302.875 164.5,303.0156 164.2344,303.0156 C164.0156,303.0156 163.7813,302.9063 163.6406,302.7656 C163.5,302.6406 163.4688,302.5156 163.4063,302.1094 C163.3125,301.7031 163.1406,301.4844 162.6563,301.2031 C162.1875,300.9531 161.5781,300.7969 161,300.7969 C159.2656,300.7969 158.0156,302.1094 158.0156,303.8906 L158.0156,304.9844 C158.0156,306.6875 159.3125,307.7813 161.3594,307.7813 C162.125,307.7813 162.8125,307.6563 163.2344,307.3906 C163.4219,307.2969 163.4219,307.2969 163.875,306.8125 C164.0625,306.625 164.2656,306.5469 164.4844,306.5469 C164.9531,306.5469 165.3438,306.9375 165.3438,307.3906 C165.3438,307.7813 165.0156,308.2344 164.4375,308.6406 C163.6875,309.1875 162.5313,309.4844 161.3125,309.4844 C158.4219,309.4844 156.3125,307.5938 156.3125,305.0156 L156.3125,303.8906 C156.3125,301.1719 158.3125,299.0938 160.9375,299.0938 C161.8125,299.0938 162.4063,299.2344 163.3438,299.6719 Z "/><text fill="#000000" font-family="sans-serif" font-size="12" lengthAdjust="spacingAndGlyphs" textLength="53" x="175" y="308.1543">MetaBox</text><line style="stroke: #A80036; stroke-width: 1.5;" x1="147" x2="230" y1="320" y2="320"/><line style="stroke: #A80036; stroke-width: 1.5;" x1="147" x2="230" y1="328" y2="328"/><!--class MetaBoxes--><rect fill="#FEFECE" filter="url(#f16dvk45x9udm9)" height="48" id="MetaBoxes" style="stroke: #A80036; stroke-width: 1.5;" width="100" x="228.5" y="154.5"/><ellipse cx="243.5" cy="170.5" fill="#ADD1B2" rx="11" ry="11" style="stroke: #A80036; stroke-width: 1.0;"/><path d="M245.8438,166.1719 L246.0156,166.25 C246.2344,165.9375 246.4375,165.8438 246.7344,165.8438 C247.0313,165.8438 247.3125,165.9844 247.4688,166.25 C247.5625,166.4063 247.5781,166.5313 247.5781,166.9688 L247.5781,168.3906 C247.5781,168.8125 247.5469,169 247.4375,169.1563 C247.2656,169.375 247,169.5156 246.7344,169.5156 C246.5156,169.5156 246.2813,169.4063 246.1406,169.2656 C246,169.1406 245.9688,169.0156 245.9063,168.6094 C245.8125,168.2031 245.6406,167.9844 245.1563,167.7031 C244.6875,167.4531 244.0781,167.2969 243.5,167.2969 C241.7656,167.2969 240.5156,168.6094 240.5156,170.3906 L240.5156,171.4844 C240.5156,173.1875 241.8125,174.2813 243.8594,174.2813 C244.625,174.2813 245.3125,174.1563 245.7344,173.8906 C245.9219,173.7969 245.9219,173.7969 246.375,173.3125 C246.5625,173.125 246.7656,173.0469 246.9844,173.0469 C247.4531,173.0469 247.8438,173.4375 247.8438,173.8906 C247.8438,174.2813 247.5156,174.7344 246.9375,175.1406 C246.1875,175.6875 245.0313,175.9844 243.8125,175.9844 C240.9219,175.9844 238.8125,174.0938 238.8125,171.5156 L238.8125,170.3906 C238.8125,167.6719 240.8125,165.5938 243.4375,165.5938 C244.3125,165.5938 244.9063,165.7344 245.8438,166.1719 Z "/><text fill="#000000" font-family="sans-serif" font-size="12" lengthAdjust="spacingAndGlyphs" textLength="68" x="257.5" y="174.6543">MetaBoxes</text><line style="stroke: #A80036; stroke-width: 1.5;" x1="229.5" x2="327.5" y1="186.5" y2="186.5"/><line style="stroke: #A80036; stroke-width: 1.5;" x1="229.5" x2="327.5" y1="194.5" y2="194.5"/><!--class ArrayIterator--><rect fill="#FEFECE" filter="url(#f16dvk45x9udm9)" height="48" id="ArrayIterator" style="stroke: #A80036; stroke-width: 1.5;" width="111" x="135" y="14.5"/><ellipse cx="150" cy="30.5" fill="#ADD1B2" rx="11" ry="11" style="stroke: #A80036; stroke-width: 1.0;"/><path d="M152.3438,26.1719 L152.5156,26.25 C152.7344,25.9375 152.9375,25.8438 153.2344,25.8438 C153.5313,25.8438 153.8125,25.9844 153.9688,26.25 C154.0625,26.4063 154.0781,26.5313 154.0781,26.9688 L154.0781,28.3906 C154.0781,28.8125 154.0469,29 153.9375,29.1563 C153.7656,29.375 153.5,29.5156 153.2344,29.5156 C153.0156,29.5156 152.7813,29.4063 152.6406,29.2656 C152.5,29.1406 152.4688,29.0156 152.4063,28.6094 C152.3125,28.2031 152.1406,27.9844 151.6563,27.7031 C151.1875,27.4531 150.5781,27.2969 150,27.2969 C148.2656,27.2969 147.0156,28.6094 147.0156,30.3906 L147.0156,31.4844 C147.0156,33.1875 148.3125,34.2813 150.3594,34.2813 C151.125,34.2813 151.8125,34.1563 152.2344,33.8906 C152.4219,33.7969 152.4219,33.7969 152.875,33.3125 C153.0625,33.125 153.2656,33.0469 153.4844,33.0469 C153.9531,33.0469 154.3438,33.4375 154.3438,33.8906 C154.3438,34.2813 154.0156,34.7344 153.4375,35.1406 C152.6875,35.6875 151.5313,35.9844 150.3125,35.9844 C147.4219,35.9844 145.3125,34.0938 145.3125,31.5156 L145.3125,30.3906 C145.3125,27.6719 147.3125,25.5938 149.9375,25.5938 C150.8125,25.5938 151.4063,25.7344 152.3438,26.1719 Z "/><text fill="#000000" font-family="sans-serif" font-size="12" lengthAdjust="spacingAndGlyphs" textLength="79" x="164" y="34.6543">ArrayIterator</text><line style="stroke: #A80036; stroke-width: 1.5;" x1="136" x2="245" y1="46.5" y2="46.5"/><line style="stroke: #A80036; stroke-width: 1.5;" x1="136" x2="245" y1="54.5" y2="54.5"/><!--class RecipeBlockEditor--><rect fill="#FEFECE" filter="url(#f16dvk45x9udm9)" height="60.8047" id="RecipeBlockEditor" style="stroke: #A80036; stroke-width: 1.5;" width="168" x="281.5" y="8"/><ellipse cx="307.3" cy="24" fill="#ADD1B2" rx="11" ry="11" style="stroke: #A80036; stroke-width: 1.0;"/><path d="M309.6438,19.6719 L309.8156,19.75 C310.0344,19.4375 310.2375,19.3438 310.5344,19.3438 C310.8313,19.3438 311.1125,19.4844 311.2688,19.75 C311.3625,19.9063 311.3781,20.0313 311.3781,20.4688 L311.3781,21.8906 C311.3781,22.3125 311.3469,22.5 311.2375,22.6563 C311.0656,22.875 310.8,23.0156 310.5344,23.0156 C310.3156,23.0156 310.0813,22.9063 309.9406,22.7656 C309.8,22.6406 309.7688,22.5156 309.7063,22.1094 C309.6125,21.7031 309.4406,21.4844 308.9563,21.2031 C308.4875,20.9531 307.8781,20.7969 307.3,20.7969 C305.5656,20.7969 304.3156,22.1094 304.3156,23.8906 L304.3156,24.9844 C304.3156,26.6875 305.6125,27.7813 307.6594,27.7813 C308.425,27.7813 309.1125,27.6563 309.5344,27.3906 C309.7219,27.2969 309.7219,27.2969 310.175,26.8125 C310.3625,26.625 310.5656,26.5469 310.7844,26.5469 C311.2531,26.5469 311.6438,26.9375 311.6438,27.3906 C311.6438,27.7813 311.3156,28.2344 310.7375,28.6406 C309.9875,29.1875 308.8313,29.4844 307.6125,29.4844 C304.7219,29.4844 302.6125,27.5938 302.6125,25.0156 L302.6125,23.8906 C302.6125,21.1719 304.6125,19.0938 307.2375,19.0938 C308.1125,19.0938 308.7063,19.2344 309.6438,19.6719 Z "/><text fill="#000000" font-family="sans-serif" font-size="12" lengthAdjust="spacingAndGlyphs" textLength="112" x="323.7" y="28.1543">RecipeBlockEditor</text><line style="stroke: #A80036; stroke-width: 1.5;" x1="282.5" x2="448.5" y1="40" y2="40"/><rect fill="none" height="6" style="stroke: #C82930; stroke-width: 1.0;" width="6" x="289.5" y="48.9023"/><text fill="#000000" font-family="sans-serif" font-size="11" lengthAdjust="spacingAndGlyphs" textLength="142" x="301.5" y="54.2104">MetaBoxes $meta_boxes</text><line style="stroke: #A80036; stroke-width: 1.5;" x1="282.5" x2="448.5" y1="60.8047" y2="60.8047"/><!--link iMetaBox to MetaBox--><path d="M143.667,244.7586 C154.174,260.282 164.705,275.8419 172.918,287.9769 " fill="none" id="iMetaBox-MetaBox" style="stroke: #A80036; stroke-width: 1.0; stroke-dasharray: 7.0,7.0;"/><polygon fill="none" points="137.8,248.5788,132.387,228.092,149.395,240.7317,137.8,248.5788" style="stroke: #A80036; stroke-width: 1.0;"/><!--link ArrayIterator to MetaBoxes--><path d="M216.171,79.756 C231.629,103.998 250.763,134.003 263.723,154.327 " fill="none" id="ArrayIterator-MetaBoxes" style="stroke: #A80036; stroke-width: 1.0;"/><polygon fill="none" points="210.08,83.225,205.229,62.598,221.885,75.698,210.08,83.225" style="stroke: #A80036; stroke-width: 1.0;"/><!--link MetaBoxes to MetaBox--><path d="M255.236,213.491 C239.317,236.7501 218.623,266.987 204.527,287.5828 " fill="none" id="MetaBoxes-MetaBox" style="stroke: #A80036; stroke-width: 1.0;"/><polygon fill="#FFFFFF" points="262.617,202.707,255.9271,205.3987,255.8388,212.6093,262.5286,209.9176,262.617,202.707" style="stroke: #A80036; stroke-width: 1.0;"/><!--link RecipeBlockEditor to MetaBoxes--><path d="M339.899,80.109 C324.654,104.291 305.856,134.107 293.106,154.333 " fill="none" id="RecipeBlockEditor-MetaBoxes" style="stroke: #A80036; stroke-width: 1.0;"/><polygon fill="#FFFFFF" points="346.836,69.104,340.2525,72.0464,340.4365,79.2552,347.02,76.3128,346.836,69.104" style="stroke: #A80036; stroke-width: 1.0;"/><!--
@startuml
interface iMetaBox {
    +void display(WP_Post $post)
    +void save(int $recipe_id)
    +mixed sanitize(string $input)
    +string get_name()
}

class MetaBox {
}



iMetaBox <|.. MetaBox

class MetaBoxes {
}

class ArrayIterator {

}


ArrayIterator <|- - MetaBoxes
MetaBoxes o- - MetaBox

class RecipeBlockEditor {
    -MetaBoxes $meta_boxes
}

RecipeBlockEditor o- - MetaBoxes
@enduml

PlantUML version 1.2019.06(Fri May 24 17:10:25 UTC 2019)
(GPL source distribution)
Java Runtime: Java(TM) SE Runtime Environment
JVM: Java HotSpot(TM) 64-Bit Server VM
Java Version: 1.7.0_25-b15
Operating System: Linux
Default Encoding: UTF-8
Language: en
Country: US
--></g></svg>