<?xml version="1.0" encoding="iso-8859-1"?>
<!-- Generator: Adobe Illustrator 18.0.0, SVG Export Plug-In . SVG Version: 6.00 Build 0)  -->
<!DOCTYPE svg PUBLIC "-//W3C//DTD SVG 1.1//EN" "http://www.w3.org/Graphics/SVG/1.1/DTD/svg11.dtd">
<svg version="1.1" id="Capa_1" xmlns="http://www.w3.org/2000/svg" xmlns:xlink="http://www.w3.org/1999/xlink" x="0px" y="0px"
	 viewBox="0 0 412 412" style="enable-background:new 0 0 412 412;" xml:space="preserve">
<g>
	<path d="M328.567,121.545h-303c-4.143,0-7.5,3.358-7.5,7.5V404.5c0,4.142,3.357,7.5,7.5,7.5h303c4.143,0,7.5-3.358,7.5-7.5V129.045
		C336.067,124.903,332.71,121.545,328.567,121.545z M321.067,397h-288V136.545h288V397z"/>
	<path d="M51.965,385.603h250.204c4.143,0,7.5-3.358,7.5-7.5V155.443c0-4.142-3.357-7.5-7.5-7.5H51.965c-4.143,0-7.5,3.358-7.5,7.5
		v222.659C44.465,382.245,47.822,385.603,51.965,385.603z M59.465,162.943h235.204v207.659H59.465V162.943z"/>
	<path d="M259.703,224.841H94.431c-4.143,0-7.5,3.358-7.5,7.5v101c0,4.142,3.357,7.5,7.5,7.5h165.272c4.143,0,7.5-3.358,7.5-7.5
		v-101C267.203,228.199,263.846,224.841,259.703,224.841z M252.203,325.841H101.931v-86h150.272V325.841z"/>
	<path d="M281.34,176.636c-4.143,0-7.5,3.358-7.5,7.5v9.716H87.181v-9.716c0-4.142-3.357-7.5-7.5-7.5s-7.5,3.358-7.5,7.5v17.216
		c0,4.142,3.357,7.5,7.5,7.5H281.34c4.143,0,7.5-3.358,7.5-7.5v-17.216C288.84,179.994,285.482,176.636,281.34,176.636z"/>
	<path d="M27.194,35.659h5.125V95.16c0,11.491,9.349,20.84,20.84,20.84h83.502c11.491,0,20.84-9.349,20.84-20.84V35.659h5.125
		c4.143,0,7.5-3.358,7.5-7.5s-3.357-7.5-7.5-7.5h-62.512V7.5c0-4.142-3.357-7.5-7.5-7.5s-7.5,3.358-7.5,7.5v13.159h-57.92
		c-4.143,0-7.5,3.358-7.5,7.5S23.052,35.659,27.194,35.659z M142.501,35.659V95.16c0,3.22-2.62,5.84-5.84,5.84H53.159
		c-3.22,0-5.84-2.62-5.84-5.84V35.659H142.501z"/>
	<path d="M386.433,70.688H202.797c-2.287,0-4.448,1.043-5.871,2.833c-1.423,1.791-1.951,4.132-1.436,6.36l7.024,30.312
		c0.788,3.399,3.816,5.807,7.307,5.807h96.132c3.489,0,6.519-2.407,7.307-5.807l5.68-24.505h67.493c4.143,0,7.5-3.358,7.5-7.5
		S390.575,70.688,386.433,70.688z M299.992,101h-84.21l-3.549-15.312h91.308L299.992,101z"/>
	<path d="M128.37,274.847h97.394c4.143,0,7.5-3.358,7.5-7.5s-3.357-7.5-7.5-7.5H128.37c-4.143,0-7.5,3.358-7.5,7.5
		S124.228,274.847,128.37,274.847z"/>
	<path d="M128.37,305.835h97.394c4.143,0,7.5-3.358,7.5-7.5s-3.357-7.5-7.5-7.5H128.37c-4.143,0-7.5,3.358-7.5,7.5
		S124.228,305.835,128.37,305.835z"/>
</g>
</svg>
