<?xml version="1.0" encoding="iso-8859-1"?>
<!-- Generator: Adobe Illustrator 18.0.0, SVG Export Plug-In . SVG Version: 6.00 Build 0)  -->
<!DOCTYPE svg PUBLIC "-//W3C//DTD SVG 1.1//EN" "http://www.w3.org/Graphics/SVG/1.1/DTD/svg11.dtd">
<svg version="1.1" id="Capa_1" xmlns="http://www.w3.org/2000/svg" xmlns:xlink="http://www.w3.org/1999/xlink" x="0px" y="0px"
	 viewBox="0 0 389.982 389.982" style="enable-background:new 0 0 389.982 389.982;" xml:space="preserve">
<g>
	<path d="M361.451,335.803l-55.683-55.682L161.526,135.879c-1.972-1.971-4.874-2.687-7.531-1.858
		c-2.661,0.828-4.644,3.062-5.148,5.803c-9.745,52.899,7.145,107.188,45.18,145.224l53.408,53.408
		c1.407,1.407,3.314,2.197,5.304,2.197s3.896-0.79,5.304-2.197l9.544-9.544l50.378,50.378c5.995,5.995,13.868,8.992,21.743,8.992
		c7.873,0,15.748-2.998,21.742-8.991l0.001,0C373.439,367.3,373.439,347.792,361.451,335.803z M252.738,322.545l-48.104-48.104
		c-31.035-31.035-46.57-73.986-42.989-117.231l128.214,128.214L252.738,322.545z M350.844,368.682
		c-6.143,6.141-16.134,6.14-22.272,0l-50.379-50.378l22.272-22.272l50.379,50.378C356.984,352.55,356.984,362.541,350.844,368.682
		L350.844,368.682z"/>
	<path d="M237.031,343.484c-4.143,0-7.5,3.358-7.5,7.5v9.497c0,7.996-6.505,14.501-14.501,14.501H49.041
		c-7.996,0-14.501-6.505-14.501-14.501V134.497c0-7.996,6.505-14.501,14.501-14.501h26.282c7.863,0,15.066-4.305,18.799-11.236
		c3.71-6.887,3.347-15.214-0.948-21.73c-4.995-7.579-7.636-16.408-7.636-25.531c0-12.764,5.068-24.668,14.271-33.519
		c9.197-8.845,21.305-13.441,34.097-12.942c22.923,0.896,43.327,20.993,44.557,43.885c0.538,10.022-2.059,19.711-7.511,28.021
		c-4.317,6.582-4.68,14.966-0.945,21.88c3.721,6.891,10.901,11.171,18.739,11.171h26.283c7.996,0,14.501,6.505,14.501,14.501v54.495
		c0,4.142,3.357,7.5,7.5,7.5s7.5-3.358,7.5-7.5v-54.495c0-16.267-13.234-29.501-29.501-29.501h-26.283
		c-3.394,0-5.006-2.307-5.541-3.298c-0.542-1.003-1.598-3.648,0.289-6.525c7.219-11.002,10.658-23.815,9.947-37.053
		c-1.627-30.292-28.622-56.885-58.949-58.07c-16.906-0.663-32.914,5.419-45.08,17.119C77.242,28.873,70.538,44.616,70.538,61.498
		c0,12.066,3.497,23.75,10.111,33.786c1.835,2.783,0.798,5.376,0.267,6.362c-0.542,1.007-2.173,3.349-5.593,3.349H49.041
		c-16.267,0-29.501,13.234-29.501,29.501v225.985c0,16.267,13.234,29.501,29.501,29.501H215.03
		c16.267,0,29.501-13.234,29.501-29.501v-9.497C244.531,346.842,241.173,343.484,237.031,343.484z"/>
	<path d="M138.271,34.84c-1.586-2.471-4.685-3.717-7.548-3.217c-3.144,0.549-5.627,3.124-6.107,6.275
		c-1.033,6.773,7.269,11.227,12.383,6.721C139.769,42.179,140.347,37.912,138.271,34.84C138.001,34.42,138.541,35.24,138.271,34.84z
		"/>
</g>
</svg>
