<?xml version="1.0" encoding="iso-8859-1"?>
<!-- Generator: Adobe Illustrator 18.0.0, SVG Export Plug-In . SVG Version: 6.00 Build 0)  -->
<!DOCTYPE svg PUBLIC "-//W3C//DTD SVG 1.1//EN" "http://www.w3.org/Graphics/SVG/1.1/DTD/svg11.dtd">
<svg version="1.1" id="Capa_1" xmlns="http://www.w3.org/2000/svg" xmlns:xlink="http://www.w3.org/1999/xlink" x="0px" y="0px"
	 viewBox="0 0 444.121 444.121" style="enable-background:new 0 0 444.121 444.121;" xml:space="preserve">
<g>
	<path d="M394.388,313.627h-16.563v-16.499c0-4.142-3.358-7.5-7.5-7.5h-200.99c-4.142,0-7.5,3.358-7.5,7.5v65.496
		c0,44.938,36.56,81.497,81.498,81.497h52.995c24.84,0,47.106-11.184,62.066-28.766l37.802-18.686
		c19.2-9.49,31.127-28.691,31.127-50.108C427.323,328.401,412.548,313.627,394.388,313.627z M362.825,346.904h-185.99v-6.999h185.99
		V346.904z M362.825,304.628v20.277h-185.99v-20.277H362.825z M296.327,429.121h-52.995c-36.667,0-66.498-29.831-66.498-66.497
		v-0.719h185.99v0.719C362.825,399.291,332.994,429.121,296.327,429.121z M389.549,383.222l-17.094,8.45
		c3.457-9.03,5.37-18.817,5.37-29.048v-33.997h16.563c9.889,0,17.935,8.045,17.935,17.934
		C412.323,362.231,403.596,376.279,389.549,383.222z"/>
	<path d="M156.645,397.904H31.799V72.416H257.14v195.866c0,4.142,3.358,7.5,7.5,7.5s7.5-3.358,7.5-7.5V64.916
		c0-4.142-3.358-7.5-7.5-7.5H24.299c-4.142,0-7.5,3.358-7.5,7.5v340.488c0,4.142,3.358,7.5,7.5,7.5h132.347
		c4.142,0,7.5-3.358,7.5-7.5S160.787,397.904,156.645,397.904z"/>
	<path d="M135.279,99.968c0-4.142-3.358-7.5-7.5-7.5h-68.43c-4.142,0-7.5,3.358-7.5,7.5v57.022c0,4.142,3.358,7.5,7.5,7.5h68.43
		c4.142,0,7.5-3.358,7.5-7.5V99.968z M120.279,149.49h-53.43v-42.022h53.43V149.49z"/>
	<path d="M127.779,180.653h-68.43c-4.142,0-7.5,3.358-7.5,7.5s3.358,7.5,7.5,7.5h68.43c4.142,0,7.5-3.358,7.5-7.5
		S131.921,180.653,127.779,180.653z"/>
	<path d="M127.779,210.185h-68.43c-4.142,0-7.5,3.358-7.5,7.5s3.358,7.5,7.5,7.5h68.43c4.142,0,7.5-3.358,7.5-7.5
		S131.921,210.185,127.779,210.185z"/>
	<path d="M127.779,239.717h-68.43c-4.142,0-7.5,3.358-7.5,7.5s3.358,7.5,7.5,7.5h68.43c4.142,0,7.5-3.358,7.5-7.5
		S131.921,239.717,127.779,239.717z"/>
	<path d="M127.779,269.249h-68.43c-4.142,0-7.5,3.358-7.5,7.5s3.358,7.5,7.5,7.5h68.43c4.142,0,7.5-3.358,7.5-7.5
		S131.921,269.249,127.779,269.249z"/>
	<path d="M127.779,298.781h-68.43c-4.142,0-7.5,3.358-7.5,7.5s3.358,7.5,7.5,7.5h68.43c4.142,0,7.5-3.358,7.5-7.5
		S131.921,298.781,127.779,298.781z"/>
	<path d="M127.779,328.313h-68.43c-4.142,0-7.5,3.358-7.5,7.5s3.358,7.5,7.5,7.5h68.43c4.142,0,7.5-3.358,7.5-7.5
		S131.921,328.313,127.779,328.313z"/>
	<path d="M127.779,357.845h-68.43c-4.142,0-7.5,3.358-7.5,7.5s3.358,7.5,7.5,7.5h68.43c4.142,0,7.5-3.358,7.5-7.5
		S131.921,357.845,127.779,357.845z"/>
	<path d="M229.59,92.468h-68.43c-4.142,0-7.5,3.358-7.5,7.5s3.358,7.5,7.5,7.5h68.43c4.142,0,7.5-3.358,7.5-7.5
		S233.732,92.468,229.59,92.468z"/>
	<path d="M229.59,122h-68.43c-4.142,0-7.5,3.358-7.5,7.5s3.358,7.5,7.5,7.5h68.43c4.142,0,7.5-3.358,7.5-7.5S233.732,122,229.59,122
		z"/>
	<path d="M229.59,151.532h-68.43c-4.142,0-7.5,3.358-7.5,7.5s3.358,7.5,7.5,7.5h68.43c4.142,0,7.5-3.358,7.5-7.5
		S233.732,151.532,229.59,151.532z"/>
	<path d="M229.59,181.064h-68.43c-4.142,0-7.5,3.358-7.5,7.5s3.358,7.5,7.5,7.5h68.43c4.142,0,7.5-3.358,7.5-7.5
		S233.732,181.064,229.59,181.064z"/>
	<path d="M229.59,212.17h-68.43c-4.142,0-7.5,3.358-7.5,7.5v48.612c0,4.142,3.358,7.5,7.5,7.5h68.43c4.142,0,7.5-3.358,7.5-7.5
		V219.67C237.09,215.528,233.732,212.17,229.59,212.17z M222.09,260.782h-53.43V227.17h53.43V260.782z"/>
	<path d="M251.366,44.083c3.405,2.358,8.078,1.508,10.436-1.897C273.587,25.163,292.965,15,313.637,15
		c34.736,0,62.997,28.26,62.997,62.997s-28.26,62.996-62.997,62.996c-8.508,0-16.757-1.665-24.519-4.947
		c-3.814-1.615-8.215,0.171-9.829,3.986c-1.613,3.815,0.171,8.215,3.986,9.829c9.621,4.069,19.836,6.132,30.362,6.132
		c43.007,0,77.997-34.989,77.997-77.996C391.634,34.989,356.645,0,313.637,0c-25.594,0-49.582,12.578-64.168,33.647
		C247.112,37.053,247.961,41.725,251.366,44.083z"/>
	<path d="M288.409,85.497h25.229c4.142,0,7.5-3.358,7.5-7.5V53.9c0-4.142-3.358-7.5-7.5-7.5s-7.5,3.358-7.5,7.5v16.597h-17.729
		c-4.142,0-7.5,3.358-7.5,7.5S284.267,85.497,288.409,85.497z"/>
</g>
</svg>
