<?xml version="1.0" encoding="iso-8859-1"?>
<!-- Generator: Adobe Illustrator 18.0.0, SVG Export Plug-In . SVG Version: 6.00 Build 0)  -->
<!DOCTYPE svg PUBLIC "-//W3C//DTD SVG 1.1//EN" "http://www.w3.org/Graphics/SVG/1.1/DTD/svg11.dtd">
<svg version="1.1" id="Capa_1" xmlns="http://www.w3.org/2000/svg" xmlns:xlink="http://www.w3.org/1999/xlink" x="0px" y="0px"
	 viewBox="0 0 449.978 449.978" style="enable-background:new 0 0 449.978 449.978;" xml:space="preserve">
<g>
	<path d="M159.082,401.369v-85.16c59.953-3.878,107.546-53.879,107.546-114.795v-0.634c0-4.001-3.135-7.261-7.082-7.479
		c1.205-4.696,1.833-9.542,1.833-14.508c0-30.649-23.768-55.833-53.836-58.128c-7.165-24.62-29.787-41.92-55.958-41.92
		c-26.177,0-48.803,17.3-55.967,41.92c-30.068,2.298-53.835,27.481-53.835,58.128c0,4.967,0.628,9.812,1.833,14.508
		c-3.946,0.219-7.08,3.478-7.08,7.479v0.634c0,60.916,47.593,110.917,107.546,114.795v85.16
		c-23.461,2.466-44.268,16.404-55.45,37.611c-1.227,2.325-1.146,5.122,0.212,7.372s3.794,3.626,6.422,3.626h112.633
		c2.628,0,5.064-1.376,6.422-3.626s1.438-5.047,0.212-7.372C203.35,417.773,182.544,403.835,159.082,401.369z M246.379,178.793
		c0,5.017-0.837,9.87-2.482,14.487h-81.639c-0.779-2.199-1.401-4.456-1.815-6.767c-0.458-2.533-0.69-5.13-0.69-7.72
		c0-23.601,18.47-42.619,42.058-43.298c0.42-0.013,0.84-0.019,1.26-0.019C226.951,135.476,246.379,154.908,246.379,178.793z
		 M151.585,93.745c18.235,0,34.152,11.301,40.445,27.789c-11.642,2.224-22.33,7.935-30.753,16.589
		c-3.89,3.997-7.135,8.463-9.696,13.262c-2.562-4.8-5.806-9.267-9.697-13.265c-8.426-8.657-19.116-14.368-30.752-16.59
		C117.428,105.045,133.347,93.745,151.585,93.745z M100.1,135.476c0.419,0,0.837,0.006,1.265,0.019
		c23.576,0.672,42.045,19.691,42.045,43.298c0,2.595-0.232,5.192-0.693,7.735c-0.412,2.302-1.033,4.555-1.812,6.752H59.266
		c-1.646-4.617-2.482-9.47-2.482-14.487C56.784,154.908,76.215,135.476,100.1,135.476z M51.77,208.28h199.625
		c-3.538,51.977-46.953,93.179-99.813,93.179S55.308,260.257,51.77,208.28z M109.476,434.978
		c10.521-11.95,25.747-19.004,42.106-19.004s31.586,7.054,42.106,19.004H109.476z"/>
	<path d="M408.825,23.076L354.828,0.577c-2.127-0.886-4.543-0.746-6.553,0.381c-2.01,1.127-3.391,3.115-3.743,5.392l-8.319,53.645
		h-58.393l-9.641-37.708c-1.026-4.012-5.107-6.434-9.124-5.408c-4.014,1.026-6.435,5.111-5.409,9.124l8.691,33.992h-42.684
		c-2.105,0-4.114,0.885-5.535,2.439c-1.421,1.554-2.123,3.634-1.935,5.731l3.939,43.92c0.37,4.126,4.025,7.174,8.14,6.8
		c4.126-0.37,7.17-4.014,6.8-8.14l-0.78-8.699h140.726l-4.578,50.948h-94.185c-4.143,0-7.5,3.358-7.5,7.5s3.357,7.5,7.5,7.5h92.837
		l-1.617,18h-83.22c-4.143,0-7.5,3.358-7.5,7.5s3.357,7.5,7.5,7.5h81.873l-3.563,39.651h-87.643c-4.143,0-7.5,3.358-7.5,7.5
		s3.357,7.5,7.5,7.5h86.295l-2.906,32.339H246.26c-1.391-2.592-4.241-4.227-7.366-3.911c-4.121,0.418-7.122,4.098-6.704,8.219
		l1.076,10.591c1.514,16.869,9.231,32.452,21.73,43.88c10.64,9.727,23.971,15.718,38.147,17.29v46.424
		c-17.228,2.342-32.4,12.816-40.672,28.502c-1.227,2.325-1.146,5.122,0.212,7.372c1.357,2.25,3.794,3.626,6.422,3.626h82.807
		c2.628,0,5.064-1.376,6.422-3.626c1.357-2.251,1.438-5.048,0.212-7.372c-8.229-15.604-23.286-26.049-40.402-28.464v-46.462
		c14.175-1.572,27.506-7.562,38.145-17.288c12.5-11.427,20.218-27.009,21.733-43.876l21.09-234.723
		c0.188-2.097-0.514-4.177-1.935-5.732c-1.421-1.554-3.43-2.439-5.535-2.439h-30.251l6.497-41.893l45.167,18.82
		c3.825,1.593,8.215-0.215,9.808-4.038C414.456,29.06,412.648,24.669,408.825,23.076z M333.886,74.996l-1.869,12.051h-47.282
		l-3.081-12.051H333.886z M227.855,74.996h38.316l3.081,12.051h-40.317L227.855,74.996z M274.315,434.978
		c7.084-6.346,16.346-9.999,26.194-9.999s19.11,3.654,26.194,9.999H274.315z M300.644,349.486c-26.927,0-49.125-19.851-52.273-46.5
		h104.548C349.814,329.594,327.599,349.486,300.644,349.486z M373.438,74.996l-1.083,12.051h-25.159l1.869-12.051H373.438z"/>
</g>
</svg>
